Coordinates
version=1
nRows=11
nColumns=40
inDegrees=yes

Units are S.I. units (second, meters, Newtons, ...)
Angles are in degrees.

endheader
time	pelvis_tilt	pelvis_list	pelvis_rotation	pelvis_tx	pelvis_ty	pelvis_tz	hip_flexion_r	hip_adduction_r	hip_rotation_r	knee_angle_r	knee_angle_r_beta	ankle_angle_r	subtalar_angle_r	mtp_angle_r	hip_flexion_l	hip_adduction_l	hip_rotation_l	knee_angle_l	knee_angle_l_beta	ankle_angle_l	subtalar_angle_l	mtp_angle_l	lumbar_extension	lumbar_bending	lumbar_rotation	arm_flex_r	arm_add_r	arm_rot_r	elbow_flex_r	pro_sup_r	wrist_flex_r	wrist_dev_r	arm_flex_l	arm_add_l	arm_rot_l	elbow_flex_l	pro_sup_l	wrist_flex_l	wrist_dev_l
      0.00000000	     -2.37533337	     27.81163469	     76.27662198	      0.58078731	      1.01230110	     -1.04658507	     -9.68511237	    -10.25124763	     11.42315942	     66.81603880	      1.16615987	     -0.70322362	      0.00000000	      0.00000000	    -21.15306599	     11.12241376	    -14.05313442	      7.27520818	      0.12697634	      8.34534988	      0.00000000	      0.00000000	    -39.08921596	     -8.21201354	      4.47853805	      4.06446112	     -8.52393479	      0.90845133	    142.33717494	     86.30452912	      0.00000000	      0.00000000	      0.86862722	     -7.83269192	     -2.36378439	    143.26808774	     83.85380000	      0.00000000	      0.00000000
      0.01000000	     -2.05477807	     27.41896751	     76.47258456	      0.57961348	      1.01393580	     -1.04605556	     -8.08332206	     -9.28657413	     11.28112359	     66.77679499	      1.16547494	     -0.31191290	      0.00000000	      0.00000000	    -21.89383090	     10.94260344	    -13.65218509	      6.45957461	      0.11274085	      8.42426304	      0.00000000	      0.00000000	    -38.82616018	     -7.69653051	      4.04217891	      4.03049340	     -8.52675891	      0.72065998	    142.40757737	     86.16485229	      0.00000000	      0.00000000	      0.89315312	     -8.19555070	     -2.38536426	    143.34705612	     83.64006382	      0.00000000	      0.00000000
      0.02000000	     -1.73099652	     26.86245869	     76.71926183	      0.57815578	      1.01569290	     -1.04530057	     -5.99845760	     -8.22897088	     11.03272646	     66.52340752	      1.16105249	      0.14372022	      0.00000000	      0.00000000	    -22.75562992	     10.78563860	    -13.26930365	      5.40405744	      0.09431860	      8.45971821	      0.00000000	      0.00000000	    -38.42703186	     -7.11931102	      3.51587048	      3.92852969	     -8.53475876	      0.54922262	    142.51923470	     86.04869666	      0.00000000	      0.00000000	      0.94995999	     -8.66718290	     -2.42111668	    143.46621957	     83.45027492	      0.00000000	      0.00000000
      0.03000000	     -1.45788956	     26.36431154	     76.89723403	      0.57715820	      1.01705397	     -1.04436990	     -4.23454671	     -7.28345797	     10.85981292	     65.98864811	      1.15171918	      0.28229115	      0.00000000	      0.00000000	    -23.55688029	     10.66418576	    -12.81665223	      4.34875665	      0.07590012	      8.28441416	      0.00000000	      0.00000000	    -38.08129328	     -6.67312895	      3.11862482	      3.88722783	     -8.55166073	      0.41579174	    142.61047329	     86.05462869	      0.00000000	      0.00000000	      1.04540392	     -9.07698212	     -2.49507211	    143.56516465	     83.30056224	      0.00000000	      0.00000000
      0.04000000	     -1.15476218	     25.87211159	     77.13098347	      0.57624950	      1.01841612	     -1.04349137	     -2.55961077	     -6.25330862	     10.59307713	     65.13764380	      1.13686635	      0.75293526	      0.00000000	      0.00000000	    -24.43316824	     10.47378158	    -12.33320115	      3.21235468	      0.05606617	      8.39586077	      0.00000000	      0.00000000	    -37.75528773	     -6.20074546	      2.67057204	      3.85835582	     -8.55109682	      0.18240743	    142.68825808	     86.11558845	      0.00000000	      0.00000000	      1.08976065	     -9.49606424	     -2.60024546	    143.71606394	     83.16780735	      0.00000000	      0.00000000
      0.05000000	     -0.69383356	     25.70807831	     77.59796963	      0.57490571	      1.02012984	     -1.04273186	     -1.61494526	     -5.24859792	      9.94087769	     63.63609388	      1.11065936	      1.39763327	      0.00000000	      0.00000000	    -25.68779549	     10.07640863	    -11.74598959	      2.15103296	      0.03754261	      8.41718417	      0.00000000	      0.00000000	    -37.81699198	     -5.48647282	      2.06177823	      3.87238273	     -8.63392260	     -0.04958219	    142.80965581	     86.42707200	      0.00000000	      0.00000000	      1.20281455	     -9.90212839	     -2.73264871	    143.88013759	     83.08551225	      0.00000000	      0.00000000
      0.06000000	     -0.54870169	     25.07662237	     77.93413914	      0.57392149	      1.02059894	     -1.04156704	      0.04705859	     -4.49703222	      9.57037177	     62.19273137	      1.08546793	      1.92888132	      0.00000000	      0.00000000	    -26.15269542	      9.90264469	    -11.58937364	      1.45287150	      0.02535739	      8.24864848	      0.00000000	      0.00000000	    -37.37362821	     -5.11379639	      1.61166846	      3.81492661	     -8.70221242	     -0.15973464	    142.91555729	     86.33047697	      0.00000000	      0.00000000	      1.30166102	    -10.31167328	     -2.86648313	    143.99292536	     82.95823946	      0.00000000	      0.00000000
      0.07000000	     -0.26344777	     24.80024427	     78.55289937	      0.57279855	      1.02153026	     -1.04034531	      1.01120748	     -3.74043960	      8.76252502	     60.25831975	      1.05170608	      3.08261721	      0.00000000	      0.00000000	    -26.99396822	      9.50710079	    -11.04852427	      0.89308285	      0.01558724	      8.34926328	      0.00000000	      0.00000000	    -37.35583888	     -4.53413201	      0.94649501	      3.83615023	     -8.73060955	     -0.29478747	    143.00040244	     86.42204153	      0.00000000	      0.00000000	      1.46687858	    -10.81427009	     -2.98927144	    144.11650403	     82.82946177	      0.00000000	      0.00000000
      0.08000000	     -0.03044913	     24.42000329	     79.18766554	      0.57147081	      1.02206295	     -1.03871101	      2.06307480	     -3.11484672	      7.88046778	     58.13676119	      1.01467790	      3.71609376	      0.00000000	      0.00000000	    -27.53130908	      9.11511296	    -10.78588849	      0.58980079	      0.01029397	      8.87183379	      0.00000000	      0.00000000	    -37.27512577	     -3.97152230	      0.25997313	      3.92256116	     -8.83024163	     -0.37657904	    143.04991147	     86.48093027	      0.00000000	      0.00000000	      1.66248144	    -11.20797952	     -3.16307099	    144.21038025	     82.73686787	      0.00000000	      0.00000000
      0.09000000	      0.07803515	     24.00181903	     79.72109838	      0.57049145	      1.02226339	     -1.03642834	      3.11644229	     -2.59450989	      7.23345158	     55.74102839	      0.97286447	      4.24311207	      0.00000000	      0.00000000	    -27.88356778	      8.84196002	    -10.72262042	      0.43020897	      0.00750856	      9.68651342	      0.00000000	      0.00000000	    -37.21509971	     -3.61329568	     -0.28859083	      4.01804949	     -8.87903765	     -0.31658591	    143.10013083	     86.44926438	      0.00000000	      0.00000000	      1.97841340	    -11.67947407	     -3.29596445	    144.24463909	     82.66054654	      0.00000000	      0.00000000
      0.10000000	      0.05523261	     23.60026402	     80.30960917	      0.56948340	      1.02204869	     -1.03440256	      4.04196216	     -2.32366065	      6.45916667	     53.04878170	      0.92587590	      4.88335081	      0.00000000	      0.00000000	    -28.23784212	      8.68557859	    -10.63636766	      0.34285258	      0.00598391	     10.09779123	      0.00000000	      0.00000000	    -37.10696066	     -3.37458249	     -0.88141067	      4.14524178	     -8.90766406	     -0.27109189	    143.11051981	     86.49124190	      0.00000000	      0.00000000	      2.25697706	    -12.15161040	     -3.32969470	    144.19584501	     82.31803470	      0.00000000	      0.00000000
